<?xml version="1.0" encoding="UTF-8"?>
<svg width="29px" height="29px" viewBox="0 0 29 29" version="1.1" xmlns="http://www.w3.org/2000/svg" xmlns:xlink="http://www.w3.org/1999/xlink">
    <!-- Generator: Sketch 46.2 (44496) - http://www.bohemiancoding.com/sketch -->
    <title>Group</title>
    <desc>Created with Sketch.</desc>
    <defs></defs>
    <g id="Symbols" stroke="none" stroke-width="1" fill="none" fill-rule="evenodd">
        <g id="Footer" transform="translate(-554.000000, 0.000000)" fill="#414042">
            <g id="Group-5" transform="translate(438.000000, 0.000000)">
                <g id="Group" transform="translate(116.000000, 0.000000)">
                    <path d="M14.1476093,1.1930406 C7.00349559,1.1930406 1.19167868,7.01149959 1.19167868,14.1625849 C1.19167868,21.3160563 7.00349559,27.1369014 14.1476093,27.1369014 C21.2929146,27.1369014 27.1071149,21.3160563 27.1071149,14.1625849 C27.1071149,7.01149959 21.2929146,1.1930406 14.1476093,1.1930406 M14.1476093,28.329942 C6.34688064,28.329942 0,21.9734217 0,14.1625849 C0,6.35174814 6.34688064,0 14.1476093,0 C21.9507212,0 28.2987936,6.35174814 28.2987936,14.1625849 C28.2987936,21.9734217 21.9507212,28.329942 14.1476093,28.329942" id="Fill-6"></path>
                    <path d="M17.7273024,15.0037113 L15.6164629,15.0037113 L15.6164629,22 L12.4867156,22 L12.4867156,15.0037113 L11,15.0037113 L11,12.5330607 L12.4867156,12.5330607 L12.4867156,10.9340301 C12.4867156,9.7909566 13.0720456,8 15.6449878,8 L17.9623472,8.00954329 L17.9623472,10.4080891 L16.2793806,10.4080891 C16.00326,10.4080891 15.6164629,10.5363932 15.6164629,11.0814209 L15.6164629,12.5351814 L18,12.5351814 L17.7273024,15.0037113 Z" id="Fill-8"></path>
                </g>
            </g>
        </g>
    </g>
</svg>