<?xml version="1.0" encoding="UTF-8"?>
<svg width="30px" height="30px" viewBox="0 0 30 30" version="1.1" xmlns="http://www.w3.org/2000/svg" xmlns:xlink="http://www.w3.org/1999/xlink">
    <!-- Generator: Sketch 46.2 (44496) - http://www.bohemiancoding.com/sketch -->
    <title>Group 4</title>
    <desc>Created with Sketch.</desc>
    <defs></defs>
    <g id="Symbols" stroke="none" stroke-width="1" fill="none" fill-rule="evenodd">
        <g id="Footer" transform="translate(-496.000000, 0.000000)" fill="#414042">
            <g id="Group-5" transform="translate(438.000000, 0.000000)">
                <g id="Group-4" transform="translate(58.000000, 0.000000)">
                    <path d="M14.6993565,1.1930406 C7.25136476,1.1930406 1.19167868,7.25845899 1.19167868,14.7149627 C1.19167868,22.1714664 7.25136476,28.2392709 14.6993565,28.2392709 C22.1473482,28.2392709 28.2058426,22.1714664 28.2058426,14.7149627 C28.2058426,7.25845899 22.1473482,1.1930406 14.6993565,1.1930406 M14.6993565,29.4323115 C6.59355813,29.4323115 0,22.8312179 0,14.7149627 C0,6.60109362 6.59355813,0 14.6993565,0 C22.8039632,0 29.3975213,6.60109362 29.3975213,14.7149627 C29.3975213,22.8312179 22.8039632,29.4323115 14.6993565,29.4323115" id="Fill-10"></path>
                    <path d="M11.1398123,8.32980944 C9.58467161,8.32980944 8.32149221,9.59562552 8.32149221,11.1513505 L8.32149221,18.7104557 C8.32149221,20.2673737 9.58467161,21.5343828 11.1398123,21.5343828 L18.6926717,21.5343828 C20.2466207,21.5343828 21.5109918,20.2673737 21.5109918,18.7104557 L21.5109918,11.1513505 C21.5109918,9.59562552 20.2466207,8.32980944 18.6926717,8.32980944 L11.1398123,8.32980944 Z M18.6926717,22.7071417 L11.1398123,22.7071417 C8.94116512,22.7071417 7.15007207,20.9151947 7.15007207,18.7104557 L7.15007207,11.1513505 C7.15007207,8.95019056 8.94116512,7.15824358 11.1398123,7.15824358 L18.6926717,7.15824358 C20.8925106,7.15824358 22.682412,8.95019056 22.682412,11.1513505 L22.682412,18.7104557 C22.682412,20.9151947 20.8925106,22.7071417 18.6926717,22.7071417 L18.6926717,22.7071417 Z" id="Fill-12"></path>
                    <path d="M14.8137576,11.9065452 C13.2049914,11.9065452 11.8965282,13.2165037 11.8965282,14.8283016 C11.8965282,16.4412925 13.2049914,17.7476719 14.8137576,17.7476719 C16.4237155,17.7476719 17.7321787,16.4412925 17.7321787,14.8283016 C17.7321787,13.2165037 16.4237155,11.9065452 14.8137576,11.9065452 M14.8137576,18.9228169 C12.5591016,18.9228169 10.7251081,17.0843413 10.7251081,14.8283016 C10.7251081,12.5734548 12.5591016,10.7373654 14.8137576,10.7373654 C17.0684137,10.7373654 18.9024072,12.5734548 18.9024072,14.8283016 C18.9024072,17.0843413 17.0684137,18.9228169 14.8137576,18.9228169" id="Fill-14"></path>
                    <path d="M19.8629002,10.5071085 C19.8629002,11.0403977 19.4195957,11.4746645 18.8690402,11.4746645 C18.3196763,11.4746645 17.8751802,11.0403977 17.8751802,10.5071085 C17.8751802,9.97620547 18.3196763,9.54432477 18.8690402,9.54432477 C19.4195957,9.54432477 19.8629002,9.97620547 19.8629002,10.5071085" id="Fill-16"></path>
                </g>
            </g>
        </g>
    </g>
</svg>