<?xml version="1.0" encoding="UTF-8"?>
<svg width="30px" height="30px" viewBox="0 0 30 30" version="1.1" xmlns="http://www.w3.org/2000/svg" xmlns:xlink="http://www.w3.org/1999/xlink">
    <!-- Generator: Sketch 46.2 (44496) - http://www.bohemiancoding.com/sketch -->
    <title>Group 2</title>
    <desc>Created with Sketch.</desc>
    <defs></defs>
    <g id="Symbols" stroke="none" stroke-width="1" fill="none" fill-rule="evenodd">
        <g id="Footer" transform="translate(-438.000000, 0.000000)" fill="#414042">
            <g id="Group-5" transform="translate(438.000000, 0.000000)">
                <g id="Group-2">
                    <path d="M14.6981648,1.1930406 C7.25017308,1.1930406 1.19167868,7.26084507 1.19167868,14.7173488 C1.19167868,22.1738525 7.25017308,28.2392709 14.6981648,28.2392709 C22.1449649,28.2392709 28.204651,22.1738525 28.204651,14.7173488 C28.204651,7.26084507 22.1449649,1.1930406 14.6981648,1.1930406 M14.6981648,29.4323115 C6.59355813,29.4323115 0,22.8312179 0,14.7173488 C0,6.60109362 6.59355813,0 14.6981648,0 C22.8027715,0 29.3963296,6.60109362 29.3963296,14.7173488 C29.3963296,22.8312179 22.8027715,29.4323115 14.6981648,29.4323115" id="Fill-1"></path>
                    <path d="M12.7254278,17.2492513 L12.7254278,11.7508036 C14.2425519,12.6676571 15.7541608,13.5811081 17.274502,14.4999059 C15.7546204,15.4185822 14.2434711,16.3317902 12.7254278,17.2492513 M21.9703019,13.3086647 C21.9532969,12.950065 21.9245722,12.5914653 21.8857364,12.2346884 C21.8460963,11.871228 21.7927832,11.5092258 21.7355636,11.1481957 C21.7041962,10.9499998 21.6738629,10.7464571 21.605613,10.560656 C21.3576614,9.88477276 20.858426,9.51535796 20.2109711,9.35641238 C19.9850801,9.30100015 19.7498822,9.28495977 19.5180164,9.2601701 C19.1144917,9.21666664 18.7107372,9.17474292 18.3062934,9.1429052 C17.8543963,9.10730042 17.4018099,9.07643484 16.9491085,9.05699195 C16.359218,9.03147317 15.7687529,9.01895681 15.1473801,9 C14.5270414,9.01421761 13.8759097,9.02673397 13.2247781,9.04544774 C12.9560298,9.0532249 12.6873963,9.07120956 12.4191076,9.08980182 C12.1239325,9.11021685 11.8288723,9.13427742 11.5341569,9.16137594 C11.2901118,9.18385678 11.0460667,9.2082819 10.8030557,9.24084873 C10.5333881,9.2770611 10.2647547,9.32129367 9.99623614,9.36576926 C9.71496382,9.4125537 9.44035564,9.48449238 9.18631435,9.62654695 C8.81783383,9.83264153 8.53127617,10.1219759 8.3624898,10.5318563 C8.27562629,10.74269 8.24288012,10.9673769 8.21806198,11.1920637 C8.16141686,11.7031685 8.09994599,12.2142734 8.06490185,12.7272009 C8.02882362,13.2567765 8.01469107,13.7884179 8.00377568,14.3194517 C7.9915964,14.9152546 8.00917592,15.5109359 8.05226298,16.1054021 C8.07374906,16.3993542 8.09477554,16.6937924 8.1280962,16.9864078 C8.16359994,17.2983446 8.21070845,17.6088232 8.25804677,17.9191802 C8.28665658,18.1057104 8.31859845,18.2923621 8.39374228,18.4667404 C8.64376211,19.0473536 9.08049253,19.4012141 9.6494715,19.5585799 C10.0039344,19.656645 10.3724149,19.7023357 10.7365292,19.7550746 C11.0728381,19.8038033 11.4114449,19.8368562 11.7499368,19.865899 C12.1829905,19.9033266 12.6166187,19.9363795 13.0505915,19.9589818 C13.4830707,19.9812196 13.9161243,19.9985967 14.349178,19.9998119 C15.0460393,20.0015131 15.7431305,19.9914271 16.4399918,19.9796399 C16.7375798,19.9745361 17.0350528,19.9563084 17.3321812,19.9366225 C17.6796352,19.9136556 18.0270893,19.8854634 18.3739688,19.8538687 C18.6450151,19.8289575 18.9157167,19.7994286 19.185729,19.7640669 C19.4336806,19.7317431 19.6804833,19.6901839 19.9276307,19.650083 C20.1783399,19.6093744 20.4247979,19.5516534 20.6571233,19.438034 C21.0285912,19.2562431 21.3279026,18.9918198 21.5231157,18.6060001 C21.6231926,18.4080472 21.6735182,18.1944185 21.7014387,17.9731342 C21.748777,17.5978865 21.8051923,17.2237325 21.8472453,16.8477557 C21.8864258,16.4964471 21.9183676,16.1438018 21.9416921,15.7909135 C21.9685784,15.3841926 21.9944307,14.9767427 21.9990266,14.5691712 C22.0038524,14.1492049 21.9901794,13.728388 21.9703019,13.3086647" id="Fill-1"></path>
                </g>
            </g>
        </g>
    </g>
</svg>